<svg width="400" height="400" viewBox="0 0 400 400" fill="none" xmlns="http://www.w3.org/2000/svg">
<g clip-path="url(#clip0_1_2)">
<rect width="400" height="400" fill="#6383E2"/>
<rect x="10" y="10" width="380" height="380" fill="#6DBBE3"/>
<g filter="url(#filter0_d_1_2)">
<mask id="path-2-outside-1_1_2" maskUnits="userSpaceOnUse" x="207" y="164" width="165" height="218" fill="black">
<rect fill="white" x="207" y="164" width="165" height="218"/>
<path d="M211.75 378V168H336.4L367.3 198.9V281.55L333.55 315.3H254.2V378H211.75ZM223.15 367.8H242.5V303.3H328.45L356.2 275.4V204.3L331.15 179.25H223.15V367.8ZM254.2 272.85H312.85L325 260.85V219.6L315.85 210.45H254.2V272.85ZM242.5 284.1V198.6H321.85L337 213.6V266.25L319 284.1H242.5Z"/>
</mask>
<path d="M211.75 378V168H336.4L367.3 198.9V281.55L333.55 315.3H254.2V378H211.75ZM223.15 367.8H242.5V303.3H328.45L356.2 275.4V204.3L331.15 179.25H223.15V367.8ZM254.2 272.85H312.85L325 260.85V219.6L315.85 210.45H254.2V272.85ZM242.5 284.1V198.6H321.85L337 213.6V266.25L319 284.1H242.5Z" fill="black"/>
<path d="M211.75 378H207.75V382H211.75V378ZM211.75 168V164H207.75V168H211.75ZM336.4 168L339.228 165.172L338.057 164H336.4V168ZM367.3 198.9H371.3V197.243L370.128 196.072L367.3 198.9ZM367.3 281.55L370.128 284.378L371.3 283.207V281.55H367.3ZM333.55 315.3V319.3H335.207L336.378 318.128L333.55 315.3ZM254.2 315.3V311.3H250.2V315.3H254.2ZM254.2 378V382H258.2V378H254.2ZM223.15 367.8H219.15V371.8H223.15V367.8ZM242.5 367.8V371.8H246.5V367.8H242.5ZM242.5 303.3V299.3H238.5V303.3H242.5ZM328.45 303.3V307.3H330.113L331.286 306.121L328.45 303.3ZM356.2 275.4L359.036 278.221L360.2 277.051V275.4H356.2ZM356.2 204.3H360.2V202.643L359.028 201.472L356.2 204.3ZM331.15 179.25L333.978 176.422L332.807 175.25H331.15V179.25ZM223.15 179.25V175.25H219.15V179.25H223.15ZM254.2 272.85H250.2V276.85H254.2V272.85ZM312.85 272.85V276.85H314.492L315.661 275.696L312.85 272.85ZM325 260.85L327.811 263.696L329 262.521V260.85H325ZM325 219.6H329V217.943L327.828 216.772L325 219.6ZM315.85 210.45L318.678 207.622L317.507 206.45H315.85V210.45ZM254.2 210.45V206.45H250.2V210.45H254.2ZM242.5 284.1H238.5V288.1H242.5V284.1ZM242.5 198.6V194.6H238.5V198.6H242.5ZM321.85 198.6L324.664 195.758L323.495 194.6H321.85V198.6ZM337 213.6H341V211.931L339.814 210.758L337 213.6ZM337 266.25L339.817 269.09L341 267.917V266.25H337ZM319 284.1V288.1H320.647L321.817 286.94L319 284.1ZM215.75 378V168H207.75V378H215.75ZM211.75 172H336.4V164H211.75V172ZM333.572 170.828L364.472 201.728L370.128 196.072L339.228 165.172L333.572 170.828ZM363.3 198.9V281.55H371.3V198.9H363.3ZM364.472 278.722L330.722 312.472L336.378 318.128L370.128 284.378L364.472 278.722ZM333.55 311.3H254.2V319.3H333.55V311.3ZM250.2 315.3V378H258.2V315.3H250.2ZM254.2 374H211.75V382H254.2V374ZM223.15 371.8H242.5V363.8H223.15V371.8ZM246.5 367.8V303.3H238.5V367.8H246.5ZM242.5 307.3H328.45V299.3H242.5V307.3ZM331.286 306.121L359.036 278.221L353.364 272.579L325.614 300.479L331.286 306.121ZM360.2 275.4V204.3H352.2V275.4H360.2ZM359.028 201.472L333.978 176.422L328.322 182.078L353.372 207.128L359.028 201.472ZM331.15 175.25H223.15V183.25H331.15V175.25ZM219.15 179.25V367.8H227.15V179.25H219.15ZM254.2 276.85H312.85V268.85H254.2V276.85ZM315.661 275.696L327.811 263.696L322.189 258.004L310.039 270.004L315.661 275.696ZM329 260.85V219.6H321V260.85H329ZM327.828 216.772L318.678 207.622L313.022 213.278L322.172 222.428L327.828 216.772ZM315.85 206.45H254.2V214.45H315.85V206.45ZM250.2 210.45V272.85H258.2V210.45H250.2ZM246.5 284.1V198.6H238.5V284.1H246.5ZM242.5 202.6H321.85V194.6H242.5V202.6ZM319.036 201.442L334.186 216.442L339.814 210.758L324.664 195.758L319.036 201.442ZM333 213.6V266.25H341V213.6H333ZM334.183 263.41L316.183 281.26L321.817 286.94L339.817 269.09L334.183 263.41ZM319 280.1H242.5V288.1H319V280.1Z" fill="white" mask="url(#path-2-outside-1_1_2)"/>
</g>
<g filter="url(#filter1_d_1_2)">
<mask id="path-4-outside-2_1_2" maskUnits="userSpaceOnUse" x="31" y="19" width="170" height="218" fill="black">
<rect fill="white" x="31" y="19" width="170" height="218"/>
<path d="M66.15 233L35.25 202.1V164.3H77.7V181.4L86.85 190.55H144.45L153.6 181.4V158.3L144.45 149.15H67.05L36.15 118.25V53.9L67.05 23H162.3L193.2 53.9V91.7H150.75V74.6L141.6 65.45H87.75L78.45 74.6V97.55L87.75 106.7H165.15L196.05 137.6V202.1L165.15 233H66.15ZM71.55 221.45H159L184.05 196.4V141.8L160.5 118.1H82.35L67.05 102.95V68.9L82.2 53.9H147.75L162.3 68.15V81.05H181.5V58.85L157.2 34.55H72.75L47.7 59.6V112.1L73.05 137.6H151.05L164.7 150.8V187.1L149.55 202.25H81L66.6 187.85V174.95H47.25V197.15L71.55 221.45Z"/>
</mask>
<path d="M66.15 233L35.25 202.1V164.3H77.7V181.4L86.85 190.55H144.45L153.6 181.4V158.3L144.45 149.15H67.05L36.15 118.25V53.9L67.05 23H162.3L193.2 53.9V91.7H150.75V74.6L141.6 65.45H87.75L78.45 74.6V97.55L87.75 106.7H165.15L196.05 137.6V202.1L165.15 233H66.15ZM71.55 221.45H159L184.05 196.4V141.8L160.5 118.1H82.35L67.05 102.95V68.9L82.2 53.9H147.75L162.3 68.15V81.05H181.5V58.85L157.2 34.55H72.75L47.7 59.6V112.1L73.05 137.6H151.05L164.7 150.8V187.1L149.55 202.25H81L66.6 187.85V174.95H47.25V197.15L71.55 221.45Z" fill="black"/>
<path d="M66.15 233L63.3216 235.828L64.4931 237H66.15V233ZM35.25 202.1H31.25V203.757L32.4216 204.928L35.25 202.1ZM35.25 164.3V160.3H31.25V164.3H35.25ZM77.7 164.3H81.7V160.3H77.7V164.3ZM77.7 181.4H73.7V183.057L74.8716 184.228L77.7 181.4ZM86.85 190.55L84.0216 193.378L85.1931 194.55H86.85V190.55ZM144.45 190.55V194.55H146.107L147.278 193.378L144.45 190.55ZM153.6 181.4L156.428 184.228L157.6 183.057V181.4H153.6ZM153.6 158.3H157.6V156.643L156.428 155.472L153.6 158.3ZM144.45 149.15L147.278 146.322L146.107 145.15H144.45V149.15ZM67.05 149.15L64.2216 151.978L65.3932 153.15H67.05V149.15ZM36.15 118.25H32.15V119.907L33.3216 121.078L36.15 118.25ZM36.15 53.9L33.3216 51.0716L32.15 52.2431V53.9H36.15ZM67.05 23V19H65.3932L64.2216 20.1716L67.05 23ZM162.3 23L165.128 20.1716L163.957 19H162.3V23ZM193.2 53.9H197.2V52.2431L196.028 51.0716L193.2 53.9ZM193.2 91.7V95.7H197.2V91.7H193.2ZM150.75 91.7H146.75V95.7H150.75V91.7ZM150.75 74.6H154.75V72.9431L153.578 71.7716L150.75 74.6ZM141.6 65.45L144.428 62.6216L143.257 61.45H141.6V65.45ZM87.75 65.45V61.45H86.1122L84.9447 62.5987L87.75 65.45ZM78.45 74.6L75.6447 71.7487L74.45 72.9241V74.6H78.45ZM78.45 97.55H74.45V99.2259L75.6447 100.401L78.45 97.55ZM87.75 106.7L84.9447 109.551L86.1122 110.7H87.75V106.7ZM165.15 106.7L167.978 103.872L166.807 102.7H165.15V106.7ZM196.05 137.6H200.05V135.943L198.878 134.772L196.05 137.6ZM196.05 202.1L198.878 204.928L200.05 203.757V202.1H196.05ZM165.15 233V237H166.807L167.978 235.828L165.15 233ZM71.55 221.45L68.7216 224.278L69.8932 225.45H71.55V221.45ZM159 221.45V225.45H160.657L161.828 224.278L159 221.45ZM184.05 196.4L186.878 199.228L188.05 198.057V196.4H184.05ZM184.05 141.8H188.05V140.151L186.887 138.981L184.05 141.8ZM160.5 118.1L163.337 115.281L162.164 114.1H160.5V118.1ZM82.35 118.1L79.5355 120.942L80.7047 122.1H82.35V118.1ZM67.05 102.95H63.05V104.618L64.2355 105.792L67.05 102.95ZM67.05 68.9L64.2357 66.0575L63.05 67.2315V68.9H67.05ZM82.2 53.9V49.9H80.5548L79.3857 51.0575L82.2 53.9ZM147.75 53.9L150.549 51.0423L149.383 49.9H147.75V53.9ZM162.3 68.15H166.3V66.4687L165.099 65.2923L162.3 68.15ZM162.3 81.05H158.3V85.05H162.3V81.05ZM181.5 81.05V85.05H185.5V81.05H181.5ZM181.5 58.85H185.5V57.1931L184.328 56.0216L181.5 58.85ZM157.2 34.55L160.028 31.7216L158.857 30.55H157.2V34.55ZM72.75 34.55V30.55H71.0931L69.9216 31.7216L72.75 34.55ZM47.7 59.6L44.8716 56.7716L43.7 57.9431V59.6H47.7ZM47.7 112.1H43.7V113.75L44.8632 114.92L47.7 112.1ZM73.05 137.6L70.2132 140.42L71.3862 141.6H73.05V137.6ZM151.05 137.6L153.831 134.725L152.668 133.6H151.05V137.6ZM164.7 150.8H168.7V149.104L167.481 147.925L164.7 150.8ZM164.7 187.1L167.528 189.928L168.7 188.757V187.1H164.7ZM149.55 202.25V206.25H151.207L152.378 205.078L149.55 202.25ZM81 202.25L78.1716 205.078L79.3431 206.25H81V202.25ZM66.6 187.85H62.6V189.507L63.7716 190.678L66.6 187.85ZM66.6 174.95H70.6V170.95H66.6V174.95ZM47.25 174.95V170.95H43.25V174.95H47.25ZM47.25 197.15H43.25V198.807L44.4216 199.978L47.25 197.15ZM68.9784 230.172L38.0784 199.272L32.4216 204.928L63.3216 235.828L68.9784 230.172ZM39.25 202.1V164.3H31.25V202.1H39.25ZM35.25 168.3H77.7V160.3H35.25V168.3ZM73.7 164.3V181.4H81.7V164.3H73.7ZM74.8716 184.228L84.0216 193.378L89.6784 187.722L80.5284 178.572L74.8716 184.228ZM86.85 194.55H144.45V186.55H86.85V194.55ZM147.278 193.378L156.428 184.228L150.772 178.572L141.622 187.722L147.278 193.378ZM157.6 181.4V158.3H149.6V181.4H157.6ZM156.428 155.472L147.278 146.322L141.622 151.978L150.772 161.128L156.428 155.472ZM144.45 145.15H67.05V153.15H144.45V145.15ZM69.8784 146.322L38.9784 115.422L33.3216 121.078L64.2216 151.978L69.8784 146.322ZM40.15 118.25V53.9H32.15V118.25H40.15ZM38.9784 56.7284L69.8784 25.8284L64.2216 20.1716L33.3216 51.0716L38.9784 56.7284ZM67.05 27H162.3V19H67.05V27ZM159.472 25.8284L190.372 56.7284L196.028 51.0716L165.128 20.1716L159.472 25.8284ZM189.2 53.9V91.7H197.2V53.9H189.2ZM193.2 87.7H150.75V95.7H193.2V87.7ZM154.75 91.7V74.6H146.75V91.7H154.75ZM153.578 71.7716L144.428 62.6216L138.772 68.2784L147.922 77.4284L153.578 71.7716ZM141.6 61.45H87.75V69.45H141.6V61.45ZM84.9447 62.5987L75.6447 71.7487L81.2553 77.4513L90.5553 68.3013L84.9447 62.5987ZM74.45 74.6V97.55H82.45V74.6H74.45ZM75.6447 100.401L84.9447 109.551L90.5553 103.849L81.2553 94.6987L75.6447 100.401ZM87.75 110.7H165.15V102.7H87.75V110.7ZM162.322 109.528L193.222 140.428L198.878 134.772L167.978 103.872L162.322 109.528ZM192.05 137.6V202.1H200.05V137.6H192.05ZM193.222 199.272L162.322 230.172L167.978 235.828L198.878 204.928L193.222 199.272ZM165.15 229H66.15V237H165.15V229ZM71.55 225.45H159V217.45H71.55V225.45ZM161.828 224.278L186.878 199.228L181.222 193.572L156.172 218.622L161.828 224.278ZM188.05 196.4V141.8H180.05V196.4H188.05ZM186.887 138.981L163.337 115.281L157.663 120.919L181.213 144.619L186.887 138.981ZM160.5 114.1H82.35V122.1H160.5V114.1ZM85.1645 115.258L69.8645 100.108L64.2355 105.792L79.5355 120.942L85.1645 115.258ZM71.05 102.95V68.9H63.05V102.95H71.05ZM69.8643 71.7424L85.0143 56.7425L79.3857 51.0575L64.2357 66.0575L69.8643 71.7424ZM82.2 57.9H147.75V49.9H82.2V57.9ZM144.951 56.7577L159.501 71.0077L165.099 65.2923L150.549 51.0423L144.951 56.7577ZM158.3 68.15V81.05H166.3V68.15H158.3ZM162.3 85.05H181.5V77.05H162.3V85.05ZM185.5 81.05V58.85H177.5V81.05H185.5ZM184.328 56.0216L160.028 31.7216L154.372 37.3784L178.672 61.6784L184.328 56.0216ZM157.2 30.55H72.75V38.55H157.2V30.55ZM69.9216 31.7216L44.8716 56.7716L50.5284 62.4284L75.5784 37.3784L69.9216 31.7216ZM43.7 59.6V112.1H51.7V59.6H43.7ZM44.8632 114.92L70.2132 140.42L75.8868 134.78L50.5368 109.28L44.8632 114.92ZM73.05 141.6H151.05V133.6H73.05V141.6ZM148.269 140.475L161.919 153.675L167.481 147.925L153.831 134.725L148.269 140.475ZM160.7 150.8V187.1H168.7V150.8H160.7ZM161.872 184.272L146.722 199.422L152.378 205.078L167.528 189.928L161.872 184.272ZM149.55 198.25H81V206.25H149.55V198.25ZM83.8284 199.422L69.4284 185.022L63.7716 190.678L78.1716 205.078L83.8284 199.422ZM70.6 187.85V174.95H62.6V187.85H70.6ZM66.6 170.95H47.25V178.95H66.6V170.95ZM43.25 174.95V197.15H51.25V174.95H43.25ZM44.4216 199.978L68.7216 224.278L74.3784 218.622L50.0784 194.322L44.4216 199.978Z" fill="white" mask="url(#path-4-outside-2_1_2)"/>
</g>
</g>
<defs>
<filter id="filter0_d_1_2" x="207.75" y="168" width="163.55" height="218" filterUnits="userSpaceOnUse" color-interpolation-filters="sRGB">
<feFlood flood-opacity="0" result="BackgroundImageFix"/>
<feColorMatrix in="SourceAlpha" type="matrix" values="0 0 0 0 0 0 0 0 0 0 0 0 0 0 0 0 0 0 127 0" result="hardAlpha"/>
<feOffset dy="4"/>
<feGaussianBlur stdDeviation="2"/>
<feComposite in2="hardAlpha" operator="out"/>
<feColorMatrix type="matrix" values="0 0 0 0 0 0 0 0 0 0 0 0 0 0 0 0 0 0 0.25 0"/>
<feBlend mode="normal" in2="BackgroundImageFix" result="effect1_dropShadow_1_2"/>
<feBlend mode="normal" in="SourceGraphic" in2="effect1_dropShadow_1_2" result="shape"/>
</filter>
<filter id="filter1_d_1_2" x="31.25" y="23" width="168.8" height="218" filterUnits="userSpaceOnUse" color-interpolation-filters="sRGB">
<feFlood flood-opacity="0" result="BackgroundImageFix"/>
<feColorMatrix in="SourceAlpha" type="matrix" values="0 0 0 0 0 0 0 0 0 0 0 0 0 0 0 0 0 0 127 0" result="hardAlpha"/>
<feOffset dy="4"/>
<feGaussianBlur stdDeviation="2"/>
<feComposite in2="hardAlpha" operator="out"/>
<feColorMatrix type="matrix" values="0 0 0 0 0 0 0 0 0 0 0 0 0 0 0 0 0 0 0.25 0"/>
<feBlend mode="normal" in2="BackgroundImageFix" result="effect1_dropShadow_1_2"/>
<feBlend mode="normal" in="SourceGraphic" in2="effect1_dropShadow_1_2" result="shape"/>
</filter>
<clipPath id="clip0_1_2">
<rect width="400" height="400" fill="white"/>
</clipPath>
</defs>
</svg>
